<svg width="345" height="94" viewBox="0 0 345 94" fill="none" xmlns="http://www.w3.org/2000/svg">
<path d="M94.2386 0.1883C101.777 0.0149599 110.935 0.0496211 118.549 0.181359C130.983 0.569641 143.334 -1.17763 155.38 2.60465C175.023 8.77208 178.071 35.7681 158.41 44.5009C174.047 49.5555 178.996 64.5875 172.29 78.9747C163.111 95.1092 141.853 93.102 125.96 93.0812L94.1683 93.0569C94.0611 89.9263 94.0594 86.5913 94.1034 83.4504C94.492 55.7784 93.5536 27.8291 94.2386 0.1883Z" fill="#0F1041"/>
<path d="M0.216753 0.19878C11.4646 -0.0646968 22.8799 0.309709 34.1454 0.146769C39.4832 0.0704998 45.5198 0.056658 50.7421 0.99616C55.6787 1.84206 60.4043 3.63786 64.6572 6.28303C71.364 10.5299 76.0736 17.3005 77.7199 25.0661C82.3671 46.1928 71.5765 61.256 50.9314 65.8356C43.0542 66.9485 31.7745 66.4874 23.4744 66.5984C23.1603 74.9984 23.3399 84.5598 23.306 93.05L0.242064 93.102C-0.208959 83.0171 0.109284 70.443 0.10547 60.1813L0.216753 0.19878Z" fill="#0F1041"/>
<path d="M274.881 0.174438L343.446 0.209098C343.332 6.4736 343.439 13.0016 343.474 19.2834L297.751 19.2938L297.706 36.5099C310.803 36.7318 324.768 36.4718 337.958 36.4926C338.01 42.7571 338.01 49.0216 337.955 55.2826L299.45 55.2896C298.753 55.3104 298.864 55.3346 298.181 55.5357C297.301 57.6678 297.751 70.9491 297.789 74.0484C313.109 74.2009 328.747 73.7849 344.011 74.3015C343.932 80.5348 344.084 86.8097 344.015 93.0707L274.864 93.0984L274.881 0.174438Z" fill="#0F1041"/>
<path d="M183.414 0.198727C208.965 -0.227689 235.776 0.160582 261.425 0.188316L261.416 19.3008C252.326 19.5746 243.084 19.1829 233.852 19.5053C233.212 33.376 233.683 51.3097 233.685 65.5028L233.647 93.0361L211.132 93.0742C210.626 68.9141 210.993 43.5961 210.989 19.332L183.319 19.3458C183.316 12.9635 183.348 6.5811 183.414 0.198727Z" fill="#0F1041"/>
<rect x="114.543" y="56" width="25.7419" height="23" fill="#E5E7EB"/>
<ellipse cx="136.608" cy="67.5" rx="15.9355" ry="11.5" fill="#E5E7EB"/>
<rect x="114.543" y="17" width="25.7419" height="23" fill="#E5E7EB"/>
<ellipse cx="136.608" cy="28.5" rx="15.9355" ry="11.5" fill="#E5E7EB"/>
<rect x="21.5432" y="20" width="25.0645" height="27" fill="#E5E7EB"/>
<ellipse cx="43.027" cy="33.5" rx="15.5161" ry="13.5" fill="#E5E7EB"/>
</svg>
