<svg width="455" height="431" viewBox="0 0 455 431" fill="none" xmlns="http://www.w3.org/2000/svg">
<path d="M68.5438 183.637C60.9984 163.911 58.4951 139.595 61.4026 118.723C66.367 82.5748 85.5229 49.8916 114.637 27.8979C143.987 5.59007 181.096 -3.93218 217.561 1.48746C256.574 7.06276 286.056 28.203 309.265 59.1583C313.38 58.7236 319.631 58.8872 323.93 58.8966L347.358 58.9548L370.821 58.925C377.071 58.915 383.675 58.6539 389.825 59.7144C407.069 62.6879 421.744 78.8327 423.467 96.1425C423.585 97.3895 423.654 98.641 423.675 99.8939C424.361 137.233 423.869 176.058 423.82 213.508L423.852 251.685C423.869 258.177 423.983 264.715 423.786 271.198C423.657 275.289 420.09 277.886 416.252 278.216C412.342 278.548 408.331 278.389 404.403 278.375C397.005 278.316 389.607 278.333 382.209 278.43C392.481 288.474 402.392 299.131 412.626 309.229C416.096 312.651 420.423 317.387 423.924 320.552C432.453 321.252 439.878 326.55 445.415 332.8C451.083 339.193 455.697 352.117 454.151 360.618C454.092 371.056 445.768 383.703 440.825 392.686C436.623 400.313 432.414 408.515 427.842 415.875C436.342 415.837 444.846 415.872 453.347 415.972L453.336 430.668L378.163 430.664C378.108 425.769 378.125 420.871 378.219 415.976C386.64 415.799 395.067 415.768 403.491 415.885C398.416 406.05 392.523 396.329 387.298 386.518C381.107 374.887 377.408 369.649 377.484 356.201L376.52 355.307C362.497 342.33 347.247 326.036 333.567 312.315L312.112 290.824C307.879 286.577 300.793 280.06 297.69 275.163C294.688 270.424 306.069 260.589 309.245 257.367C303.07 251.661 295.544 243.719 289.599 237.571C286.641 240.468 283.053 243.17 279.763 245.671C283.178 249.158 288.805 254.37 291.748 257.773C287.217 262.521 284.974 266.112 284.884 272.832C284.749 282.979 293.499 288.678 299.891 295.404C307.643 303.551 316.129 311.341 323.822 319.55C328.35 323.353 333.609 329.403 338.14 333.705C323.42 333.778 308.478 333.549 293.793 333.885C293.471 342.133 297.052 361.436 285.431 361.408C267.181 361.481 248.807 361.682 230.575 361.367C221.058 361.2 223.822 340.725 223.824 333.778C219.567 333.688 215.127 333.684 210.869 333.736C183.132 334.079 155.213 333.31 127.495 333.771C127.234 343.221 131.351 361.606 118.209 361.45C100.397 361.443 82.4641 361.696 64.6742 361.363C54.6047 361.172 57.5521 341.1 57.5556 333.761C48.1999 333.535 10.1209 334.797 4.5876 333.036C2.96204 332.519 1.52092 331.074 0.783889 329.552C0.177903 328.304 0.178943 326.765 0.118275 325.399C-0.122317 319.983 0.0763247 314.489 0.0901916 309.06L0.0960845 281.148C0.0908844 266.72 -0.0914638 251.993 0.313105 237.572C0.40948 234.14 1.17771 230.766 2.3408 227.532C4.6136 221.109 8.5792 215.42 13.8185 211.065C19.7456 206.156 32.6439 200.687 40.1952 197.111L68.5438 183.637Z" fill="#0F1041"/>
<path d="M309.265 59.1583C313.38 58.7236 319.631 58.8872 323.93 58.8966L347.358 58.9548L370.821 58.925C377.071 58.915 383.676 58.6539 389.826 59.7144C407.069 62.6879 421.744 78.8327 423.467 96.1425C423.585 97.3895 423.654 98.641 423.675 99.8939C419.04 100.129 414.387 100.054 409.745 100.026C409.069 143.241 409.614 187.317 409.548 230.628C404.622 230.771 399.692 230.809 394.762 230.743C391.33 230.716 387.274 230.268 383.918 230.979C382.074 231.369 380.344 232.107 379.051 233.52C376.045 236.81 377.675 250.884 377.297 255.87C373.154 252.515 366.498 245.442 362.584 241.49L354.274 233.133C348.925 227.774 344.155 222.385 335.921 222.439C329.144 222.483 324.568 225.717 320.009 230.35L316.119 226.644C321.482 219.092 331.113 205.229 333.82 196.308C350.984 195.394 368.869 197.182 386.047 195.809C387.846 195.666 390.529 193.145 391.015 191.464C391.628 189.339 391.531 186.5 391.545 184.255L391.559 152.769C391.594 136.889 393.667 122.63 381.204 110.327C370.623 99.8821 360.649 99.9989 347.001 100.078L328 100.173C324.54 85.1243 317.44 72.068 309.265 59.1583Z" fill="#6A3DBC"/>
<path d="M203.782 274.275C225.76 273.277 247.129 266.733 265.898 255.255C270.8 252.271 274.99 248.648 279.5 245.833L279.763 245.671C283.178 249.158 288.805 254.37 291.748 257.773C287.217 262.521 284.974 266.112 284.884 272.832C284.749 282.979 293.499 288.678 299.891 295.404C307.643 303.551 316.13 311.341 323.822 319.55C321.354 319.703 315.7 319.453 313.034 319.425C306.544 319.363 300.054 319.356 293.564 319.411C293.606 313.823 294.913 297.612 291.367 293.91C289.522 291.986 286.551 291.635 283.951 291.625C272.424 291.577 260.971 291.552 249.43 291.583C243.181 291.601 236.239 291.393 230.025 291.909C228.666 292.117 226.943 293.04 226.059 294.062C223.207 297.366 223.719 302.57 223.741 306.629C223.764 310.911 223.826 315.14 223.856 319.394C217.19 319.491 210.523 319.439 203.859 319.242C203.659 304.255 203.633 289.264 203.782 274.275Z" fill="#6A3DBC"/>
<path d="M320.293 196.214L333.82 196.308C331.113 205.229 321.482 219.092 316.119 226.644L320.009 230.35C324.568 225.717 329.144 222.483 335.921 222.439C344.155 222.385 348.925 227.774 354.274 233.133L362.584 241.49C366.498 245.442 373.154 252.515 377.297 255.87C377.709 258.74 377.352 270.292 377.3 273.752L352.208 248.584C335.047 231.306 336.881 229.205 319.679 247.388C312.919 240.772 306.249 234.063 299.673 227.262C307.054 219.632 315.752 205.738 320.293 196.214Z" fill="#E5E7EB"/>
<path d="M423.924 320.552C432.452 321.252 439.878 326.55 445.415 332.8C451.083 339.193 455.697 352.117 454.151 360.618C454.113 359.505 454.147 359.051 453.825 357.962C448.348 353.372 451.301 345.249 445.356 339.789C440.565 335.39 436.359 330.197 430.234 327.33C427.845 326.213 422.756 326.522 420.971 324.931C421.927 324.546 422.233 324.407 423.12 323.901C423.273 323.149 423.356 323.478 423.047 322.875C418.378 323.412 415.098 327.569 411.593 330.419L411.534 330.283C413.309 328.349 414.637 326.837 416.759 325.239C419.008 323.54 420.884 323 423.335 321.779C423.567 321.297 423.761 320.888 423.924 320.552Z" fill="#0F1041"/>
<path d="M192.031 15.0121C259.581 12.3541 316.49 64.9746 319.121 132.527C321.753 200.078 269.109 256.966 201.557 259.571C134.043 262.174 77.1947 209.567 74.5648 142.053C71.935 74.5384 124.519 17.6687 192.031 15.0121Z" fill="#E5E7EB"/>
<path d="M244.735 58.4161C250.901 61.487 256.879 67.1084 262.239 72.3159C266.67 76.6213 272.969 87.2148 279.583 76.865C280.606 75.264 279.947 72.3668 279.881 70.3464C287.654 78.1529 293.419 89.7722 297.291 99.9948C299.326 105.141 300.384 108.819 301.59 114.246C292.202 114.25 282.429 114.12 273.07 114.333L272.915 158.038C272.903 165.008 272.57 175.115 273.071 181.729C280.141 181.741 287.494 181.849 294.542 181.731C292.784 185.763 289.217 192.704 286.572 196.214C279.226 207.917 269.569 217.998 258.191 225.838C251.21 230.645 243.635 234.965 235.78 238.032C193.721 254.452 144.704 242.523 115.628 207.719C112.473 203.943 109.946 200.29 107.188 196.256C104.397 192.446 101.215 186.134 99.135 181.818C104.054 182.153 114.17 181.752 119.494 181.737L160.933 181.693C161.472 159.966 161.009 136.237 161.008 114.354C147.711 114.015 133.01 114.311 119.621 114.335L103.298 150.842C100.492 157.115 97.0324 164.101 94.5735 170.425C92.8079 164.53 89.3037 151.842 90.0497 145.98C90.5139 142.333 107.613 106.116 110.376 100.7C112.838 94.131 118.494 85.9262 123.097 80.8865C132.321 70.7516 144.432 63.6901 157.795 60.6539C167.505 58.3932 179.843 58.9066 189.984 58.9115L225.719 58.9212C231.532 58.9195 238.703 59.1032 244.421 58.8546L244.735 58.4161Z" fill="#6A3DBC"/>
<path d="M297.291 99.9948C299.326 105.141 300.384 108.819 301.59 114.246C292.202 114.25 282.429 114.12 273.07 114.333L272.915 158.038C272.903 165.008 272.57 175.115 273.071 181.729C280.141 181.741 287.494 181.849 294.542 181.731C292.784 185.763 289.217 192.704 286.572 196.214L237.455 196.206C228.07 196.209 215.899 196.772 206.681 195.254C202.805 194.36 199.232 191.76 196.46 189.145C187.112 180.327 189.357 167.055 189.387 155.116C189.413 145.495 189.382 135.873 189.294 126.251C189.257 114.307 194.255 102.971 207.744 100.684C216.061 99.2744 228.399 100.08 237.168 100.067L297.291 99.9948Z" fill="#0F1041"/>
<path d="M210.102 114.514C214.579 114.031 222.789 114.258 227.528 114.263L258.341 114.318V181.719L252.449 181.726C244.215 181.729 214.675 182.691 209.395 180.862C207.102 180.068 205.439 178.293 204.457 176.099C203.931 174.925 203.643 173.712 203.554 172.431C203.157 166.754 202.961 122.929 204.201 119.728C205.278 116.948 207.512 115.639 210.102 114.514Z" fill="#FEFEFE"/>
<path d="M110.376 100.7C115.16 99.7396 120.276 100.025 125.178 100.061C131.101 100.12 137.026 100.139 142.95 100.119C151.401 100.1 159.883 99.957 168.325 100.208C169.623 100.246 170.764 100.717 171.862 101.368C176.456 104.097 175.257 112.549 175.24 117.362L175.172 138.434L175.204 171.385C175.21 177.296 175.289 183.237 175.068 189.14C174.928 192.871 171.921 195.729 168.24 195.98C162.734 196.356 157.164 196.22 151.64 196.212L120.691 196.151C118.845 196.147 108.506 196.021 107.188 196.256C104.397 192.446 101.215 186.134 99.135 181.818C104.054 182.153 114.17 181.752 119.494 181.737L160.933 181.693C161.472 159.966 161.009 136.237 161.008 114.354C147.711 114.015 133.01 114.311 119.621 114.335L103.298 150.842C100.492 157.115 97.0324 164.101 94.5735 170.425C92.8079 164.53 89.3037 151.842 90.0497 145.98C90.5139 142.333 107.613 106.116 110.376 100.7Z" fill="#0F1041"/>
<path d="M244.735 58.4161C233.287 51.4939 220.498 47.0824 207.216 45.4745C201.987 44.8668 191.809 46.4494 190.315 40.5701C187.349 28.8987 199.129 30.4304 205.215 30.9459C223.244 32.3943 240.607 38.4064 255.672 48.4161C264.738 54.5454 272.888 61.929 279.881 70.3464C279.947 72.3668 280.606 75.264 279.583 76.865C272.969 87.2148 266.67 76.6213 262.239 72.3159C256.879 67.1084 250.901 61.487 244.735 58.4161Z" fill="#0F1041"/>
<path d="M73.7196 196.936C74.5586 197.415 77.5126 203.222 78.1844 204.436C101.619 246.781 142.286 269.869 189.448 274.332C188.901 288.203 189.399 305.194 189.408 319.394L127.506 319.366C127.244 312.159 128.114 304.154 126.953 297.168C125.745 289.899 113.202 291.556 107.787 291.58L85.1786 291.625C55.0141 291.452 57.4388 288.907 57.5504 319.311C43.3409 319.574 28.7085 319.38 14.4234 319.467C14.3368 308.793 14.3336 298.118 14.4141 287.448C27.7212 287.434 38.8421 288.886 49.2146 279.183C56.4896 272.809 58.3464 263.606 58.6372 254.472C58.9402 244.963 59.1343 238.743 47.3596 239.483C45.1519 239.621 41.525 239.494 39.1645 239.496L14.1846 239.519C14.3544 237.343 14.784 235.195 15.4645 233.121C19.8631 219.905 34.3818 215.68 46.0224 210.232C55.2967 205.888 64.5296 201.456 73.7196 196.936Z" fill="#6A3DBC"/>
<path d="M331.647 114.398C337.689 114.311 343.728 114.273 349.767 114.283C358.393 114.297 364.421 114.295 370.953 120.724C379.203 128.849 377.439 139.28 377.453 150L377.428 181.679L370.45 181.761L326.204 181.664C333.63 158.093 335.242 138.871 331.647 114.398Z" fill="#FEFEFE"/>
<path d="M335.224 251.724C336.58 252.868 337.7 254.025 338.951 255.269C360.923 277.117 382.542 299.429 404.67 321.11C394.956 324.133 388.48 329.014 383.097 337.623C382.636 338.479 382.459 338.76 381.89 339.55C380.857 339.422 371.83 330.061 370.464 328.682C351.934 309.982 332.974 291.604 314.618 272.744C320.706 266.181 328.832 257.879 335.224 251.724Z" fill="#FEFEFE"/>
<path d="M410.862 334.773C430.272 329.805 446.84 352.724 437.143 367.808C431.378 380.961 422.444 395.279 415.753 408.532C413.867 404.903 407.828 394.284 406.528 391.15C403.318 390.221 398.17 384.244 397.775 380.833C399.74 377.227 397.612 378.413 397.054 374.09C395.598 371.23 393.327 367.343 392.651 364.279C389.33 349.222 396.627 338.656 410.862 334.773Z" fill="#FEFEFE"/>
<path d="M410.862 334.773C430.272 329.805 446.84 352.724 437.143 367.808C437.261 365.776 437.393 363.748 437.438 361.713C437.805 345.738 426.299 335.04 410.862 334.773Z" fill="#FEFEFE"/>
<path d="M397.054 374.09C400.302 379.189 403.384 385.731 406.528 391.15C403.318 390.221 398.17 384.244 397.775 380.833C399.74 377.227 397.612 378.413 397.054 374.09Z" fill="#0F1041"/>
<path d="M71.8068 306.085C84.4777 305.721 100.529 305.829 113.244 306.109L113.299 347.018L71.8456 346.99C71.4746 333.937 71.779 319.238 71.8068 306.085Z" fill="#FEFEFE"/>
<path d="M238.083 306.054C251.759 305.926 265.68 306.068 279.375 306.078C279.448 319.72 279.434 333.358 279.327 347L238.125 347.007C237.83 334.125 237.947 318.94 238.083 306.054Z" fill="#FEFEFE"/>
<path d="M14.472 253.871C24.574 253.708 34.6779 253.721 44.7796 253.909C44.5577 260.137 44.0994 263.378 40.0236 268.166C33.0374 274.896 23.8062 273.33 14.4373 273.217C14.3645 266.769 14.3759 260.319 14.472 253.871Z" fill="#FEFEFE"/>
<path d="M391.715 244.929L409.579 244.83L409.617 263.788C403.731 263.943 397.598 263.823 391.691 263.788C391.632 257.502 391.639 251.215 391.715 244.929Z" fill="#FEFEFE"/>
<g clip-path="url(#clip0_4_93)">
<path d="M415.835 369.656C422.279 369.656 427.502 364.433 427.502 357.99C427.502 351.546 422.279 346.323 415.835 346.323C409.392 346.323 404.169 351.546 404.169 357.99C404.169 364.433 409.392 369.656 415.835 369.656Z" fill="#101240" stroke="#0F1041" stroke-width="4" stroke-linecap="round" stroke-linejoin="round"/>
</g>
<defs>
<clipPath id="clip0_4_93">
<rect width="28" height="28" fill="white" transform="translate(401.835 343.99)"/>
</clipPath>
</defs>
</svg>
